<svg width="251" height="250" viewBox="0 0 251 250" fill="none" xmlns="http://www.w3.org/2000/svg">
<path id="Vector" d="M65.5 203.545V179.789L50.5 173.906V197.662L65.5 203.545ZM90.5 173.906L75.5 179.789V203.545L90.5 197.662V173.906ZM120.5 237.858V214.102L105.5 208.22V231.976L120.5 237.858ZM145.5 208.22L130.5 214.102V237.858L145.5 231.976V208.22ZM175.5 203.545V179.789L160.5 173.906V197.662L175.5 203.545ZM200.5 173.906L185.5 179.789V203.545L200.5 197.662V173.906ZM180.5 162.142L168.959 166.667L180.5 171.192L192.041 166.667L180.5 162.142ZM125.5 196.455L113.959 200.98L125.5 205.506L137.041 200.98L125.5 196.455ZM70.5 162.142L58.9594 166.667L70.5 171.192L82.0406 166.667L70.5 162.142ZM43.6453 162.113L68.6453 152.309C69.8344 151.849 71.1656 151.849 72.3547 152.309L97.3547 162.113C98.2828 162.477 99.0783 163.106 99.6389 163.917C100.199 164.729 100.499 165.687 100.5 166.667V195.702L123.645 186.622C124.834 186.163 126.166 186.163 127.355 186.622L150.5 195.702V166.667C150.501 165.687 150.801 164.729 151.361 163.917C151.922 163.106 152.717 162.477 153.645 162.113L178.645 152.309C179.834 151.849 181.166 151.849 182.355 152.309L207.355 162.113C208.283 162.477 209.078 163.106 209.639 163.917C210.199 164.729 210.499 165.687 210.5 166.667V200.98C210.5 202.986 209.255 204.784 207.355 205.535L182.355 215.339C181.761 215.568 181.13 215.686 180.5 215.686C179.87 215.686 179.241 215.568 178.645 215.339L155.5 206.259V235.294C155.5 237.299 154.255 239.098 152.355 239.848L127.355 249.652C126.761 249.882 126.13 250 125.5 250C124.87 250 124.241 249.882 123.645 249.652L98.6453 239.848C97.7172 239.484 96.9217 238.855 96.3611 238.044C95.8006 237.232 95.5007 236.274 95.5 235.294V206.259L72.3547 215.339C71.7609 215.568 71.1297 215.686 70.5 215.686C69.8703 215.686 69.2406 215.568 68.6453 215.339L43.6453 205.535C42.7172 205.17 41.9217 204.542 41.3611 203.73C40.8006 202.918 40.5007 201.961 40.5 200.98V166.667C40.5007 165.687 40.8006 164.729 41.3611 163.917C41.9217 163.106 42.7172 162.477 43.6453 162.113ZM0.5 102.638C0.5 131.29 64.9063 146.756 125.5 146.756C186.094 146.756 250.5 131.29 250.5 102.638C250.5 88.9555 235.025 76.9121 206.925 68.7212L204.075 78.1176C226.544 84.6663 240.5 94.0643 240.5 102.638C240.5 118.868 193.275 136.952 125.5 136.952C57.725 136.952 10.5 118.868 10.5 102.638C10.5 94.0643 24.4547 84.6663 46.925 78.1176L44.075 68.7212C15.975 76.9121 0.5 88.9555 0.5 102.635V102.638ZM125.5 10.1521L74.4297 29.4121L125.5 48.6722L176.57 29.4121L125.5 10.1521ZM72.6 107.068C82.0297 111.206 97.8594 116.025 120.5 116.673V57.2874L65.5 36.5521V96.3131C65.5 100.975 68.2812 105.196 72.6 107.068ZM185.5 96.3146V36.5537L130.5 57.2889V116.671C153.141 116.025 168.969 111.206 178.42 107.059C182.72 105.196 185.5 100.976 185.5 96.3146ZM182.48 116.014C171.475 120.843 152.655 126.603 125.5 126.603C98.3438 126.603 79.525 120.843 68.5344 116.025C60.6156 112.589 55.5 104.853 55.5 96.3146V29.4121C55.5001 28.4209 55.8063 27.453 56.3784 26.6357C56.9504 25.8184 57.7614 25.1901 58.7047 24.8334L123.705 0.323644C124.861 -0.107881 126.139 -0.107881 127.295 0.323644L192.295 24.8334C193.239 25.1901 194.05 25.8184 194.622 26.6357C195.194 27.453 195.5 28.4209 195.5 29.4121V96.3146C195.5 104.853 190.384 112.589 182.48 116.014Z" fill="black"/>
</svg>
