<svg width="22" height="23" viewBox="0 0 22 23" fill="none" xmlns="http://www.w3.org/2000/svg">
<g id="Frame">
<path id="Vector" d="M2.80165 8.58459H6.54624V19.8533H2.80165V8.58459ZM4.69902 3.15259C3.41739 3.15259 2.58008 3.99398 2.58008 5.09834C2.58008 6.17998 3.39289 7.04583 4.65 7.04583H4.67388C5.98001 7.04583 6.7934 6.17993 6.7934 5.09834C6.7689 3.99398 5.98005 3.15259 4.69902 3.15259ZM15.7403 8.31987C13.7526 8.31987 12.8621 9.41316 12.3654 10.1799V8.58459H8.61963C8.66921 9.64173 8.61963 19.8533 8.61963 19.8533H12.3654V13.56C12.3654 13.223 12.3898 12.8872 12.4884 12.6457C12.7596 11.9729 13.3759 11.2761 14.4097 11.2761C15.766 11.2761 16.3077 12.3099 16.3077 13.8241V19.8533H20.0527V13.3916C20.0527 9.93035 18.2055 8.31987 15.7403 8.31987Z" fill="#272727" fill-opacity="0.7"/>
</g>
</svg>
