<svg width="22" height="22" viewBox="0 0 22 22" fill="none" xmlns="http://www.w3.org/2000/svg">
<g id="Frame">
<g id="Clip path group">
<mask id="mask0_313_1314" style="mask-type:luminance" maskUnits="userSpaceOnUse" x="0" y="0" width="22" height="22">
<g id="clip0_1704_2127">
<path id="Vector" d="M21.4406 0.364258H0.140625V21.6643H21.4406V0.364258Z" fill="white"/>
</g>
</mask>
<g mask="url(#mask0_313_1314)">
<g id="Group">
<path id="Vector_2" d="M10.791 2.1377C13.2024 2.1377 13.5032 2.14657 14.4493 2.19095C15.3945 2.23532 16.0379 2.38354 16.6041 2.60363C17.1898 2.82905 17.6833 3.13436 18.1768 3.62692C18.6281 4.07058 18.9773 4.60724 19.2 5.19957C19.4193 5.76491 19.5684 6.40924 19.6127 7.35442C19.6545 8.30049 19.666 8.60135 19.666 11.0127C19.666 13.424 19.6572 13.7249 19.6127 14.671C19.5684 15.6162 19.4193 16.2596 19.2 16.8259C18.978 17.4184 18.6286 17.9553 18.1768 18.3985C17.733 18.8496 17.1964 19.1988 16.6041 19.4218C16.0388 19.6409 15.3945 19.79 14.4493 19.8345C13.5032 19.8762 13.2024 19.8877 10.791 19.8877C8.37967 19.8877 8.07881 19.8788 7.13273 19.8345C6.18754 19.79 5.54411 19.6409 4.97789 19.4218C4.38532 19.1994 3.84856 18.8502 3.40523 18.3985C2.95386 17.9549 2.60466 17.4181 2.38195 16.8259C2.16184 16.2605 2.01364 15.6162 1.96927 14.671C1.92754 13.7249 1.91602 13.424 1.91602 11.0127C1.91602 8.60135 1.92488 8.30049 1.96927 7.35442C2.01364 6.40834 2.16184 5.76579 2.38195 5.19957C2.60403 4.60688 2.95333 4.07007 3.40523 3.62692C3.8487 3.17539 4.38542 2.82615 4.97789 2.60363C5.54411 2.38354 6.18666 2.23532 7.13273 2.19095C8.07881 2.14924 8.37967 2.1377 10.791 2.1377ZM10.791 6.57519C9.61411 6.57519 8.48541 7.04271 7.65322 7.87492C6.82103 8.70711 6.35351 9.83579 6.35351 11.0127C6.35351 12.1896 6.82103 13.3183 7.65322 14.1505C8.48541 14.9826 9.61411 15.4502 10.791 15.4502C11.9679 15.4502 13.0966 14.9826 13.9288 14.1505C14.761 13.3183 15.2285 12.1896 15.2285 11.0127C15.2285 9.83579 14.761 8.70711 13.9288 7.87492C13.0966 7.04271 11.9679 6.57519 10.791 6.57519ZM16.5598 6.35332C16.5598 6.05909 16.4429 5.77692 16.2348 5.56887C16.0267 5.36082 15.7446 5.24394 15.4504 5.24394C15.1562 5.24394 14.874 5.36082 14.6659 5.56887C14.4578 5.77692 14.341 6.05909 14.341 6.35332C14.341 6.64754 14.4578 6.92972 14.6659 7.13776C14.874 7.34581 15.1562 7.46269 15.4504 7.46269C15.7446 7.46269 16.0267 7.34581 16.2348 7.13776C16.4429 6.92972 16.5598 6.64754 16.5598 6.35332ZM10.791 8.3502C11.4972 8.3502 12.1744 8.63071 12.6737 9.13002C13.173 9.62934 13.4535 10.3066 13.4535 11.0127C13.4535 11.7188 13.173 12.3961 12.6737 12.8954C12.1744 13.3947 11.4972 13.6752 10.791 13.6752C10.0849 13.6752 9.40765 13.3947 8.90834 12.8954C8.40903 12.3961 8.12851 11.7188 8.12851 11.0127C8.12851 10.3066 8.40903 9.62934 8.90834 9.13002C9.40765 8.63071 10.0849 8.3502 10.791 8.3502Z" fill="white"/>
</g>
</g>
</g>
</g>
</svg>
