<svg width="22" height="22" viewBox="0 0 22 22" fill="none" xmlns="http://www.w3.org/2000/svg">
<g id="Frame">
<g id="Clip path group">
<mask id="mask0_371_1201" style="mask-type:luminance" maskUnits="userSpaceOnUse" x="0" y="0" width="22" height="22">
<g id="clip0_1704_2127">
<path id="Vector" d="M21.966 0.558594H0.666016V21.8586H21.966V0.558594Z" fill="white"/>
</g>
</mask>
<g mask="url(#mask0_371_1201)">
<g id="Group">
<path id="Vector_2" d="M11.3164 2.33179C13.7277 2.33179 14.0286 2.34067 14.9747 2.38504C15.9199 2.42941 16.5633 2.57763 17.1295 2.79772C17.7152 3.02314 18.2087 3.32845 18.7022 3.82102C19.1535 4.26467 19.5027 4.80134 19.7254 5.39366C19.9447 5.959 20.0938 6.60333 20.1381 7.54852C20.1799 8.49458 20.1913 8.79544 20.1913 11.2068C20.1913 13.6181 20.1826 13.9189 20.1381 14.8651C20.0938 15.8103 19.9447 16.4536 19.7254 17.02C19.5034 17.6125 19.154 18.1494 18.7022 18.5926C18.2584 19.0437 17.7217 19.3929 17.1295 19.6159C16.5642 19.835 15.9199 19.9841 14.9747 20.0286C14.0286 20.0703 13.7277 20.0818 11.3164 20.0818C8.90506 20.0818 8.6042 20.0729 7.65812 20.0286C6.71293 19.9841 6.0695 19.835 5.50328 19.6159C4.91071 19.3934 4.37395 19.0443 3.93062 18.5926C3.47925 18.149 3.13005 17.6122 2.90734 17.02C2.68723 16.4546 2.53903 15.8103 2.49466 14.8651C2.45293 13.9189 2.44141 13.6181 2.44141 11.2068C2.44141 8.79544 2.45027 8.49458 2.49466 7.54852C2.53903 6.60244 2.68723 5.95988 2.90734 5.39366C3.12942 4.80098 3.47872 4.26416 3.93062 3.82102C4.37409 3.36948 4.91081 3.02024 5.50328 2.79772C6.0695 2.57763 6.71206 2.42941 7.65812 2.38504C8.6042 2.34333 8.90506 2.33179 11.3164 2.33179ZM11.3164 6.76928C10.1395 6.76928 9.0108 7.2368 8.17861 8.06901C7.34642 8.9012 6.8789 10.0299 6.8789 11.2068C6.8789 12.3837 7.34642 13.5124 8.17861 14.3445C9.0108 15.1767 10.1395 15.6442 11.3164 15.6442C12.4933 15.6442 13.622 15.1767 14.4542 14.3445C15.2864 13.5124 15.7539 12.3837 15.7539 11.2068C15.7539 10.0299 15.2864 8.9012 14.4542 8.06901C13.622 7.2368 12.4933 6.76928 11.3164 6.76928ZM17.0851 6.54742C17.0851 6.25318 16.9683 5.97101 16.7602 5.76296C16.5521 5.55492 16.27 5.43803 15.9758 5.43803C15.6816 5.43803 15.3994 5.55492 15.1913 5.76296C14.9832 5.97101 14.8663 6.25318 14.8663 6.54742C14.8663 6.84164 14.9832 7.12381 15.1913 7.33186C15.3994 7.5399 15.6816 7.65679 15.9758 7.65679C16.27 7.65679 16.5521 7.5399 16.7602 7.33186C16.9683 7.12381 17.0851 6.84164 17.0851 6.54742ZM11.3164 8.54429C12.0225 8.54429 12.6998 8.8248 13.1991 9.32411C13.6984 9.82344 13.9789 10.5006 13.9789 11.2068C13.9789 11.9129 13.6984 12.5901 13.1991 13.0895C12.6998 13.5888 12.0225 13.8693 11.3164 13.8693C10.6103 13.8693 9.93304 13.5888 9.43373 13.0895C8.93442 12.5901 8.6539 11.9129 8.6539 11.2068C8.6539 10.5006 8.93442 9.82344 9.43373 9.32411C9.93304 8.8248 10.6103 8.54429 11.3164 8.54429Z" fill="#272727" fill-opacity="0.7"/>
</g>
</g>
</g>
</g>
</svg>
