<svg width="45" height="45" viewBox="0 0 45 45" fill="none" xmlns="http://www.w3.org/2000/svg">
<g id="carbon:load-balancer-local">
<g id="brush">
<path id="Vector" d="M40.1284 3.47771L39.9774 3.3569C38.8812 2.39944 37.45 1.91579 35.9978 2.01204C34.5455 2.10829 33.1907 2.77658 32.2305 3.87034L19.7418 18.1409C19.6006 18.288 19.4906 18.462 19.4185 18.6527C19.3464 18.8434 19.3136 19.0467 19.3221 19.2503C19.3307 19.454 19.3804 19.6539 19.4682 19.8378C19.5561 20.0218 19.6803 20.186 19.8333 20.3207C19.9863 20.4554 20.165 20.5577 20.3587 20.6214C20.5523 20.6852 20.7568 20.709 20.9599 20.6916C21.163 20.6742 21.3605 20.6158 21.5405 20.5201C21.7204 20.4243 21.8791 20.293 22.007 20.1343L34.4654 5.86369C34.6788 5.61858 34.9387 5.41815 35.2299 5.27397C35.5212 5.12979 35.8381 5.04472 36.1624 5.02366C36.4867 5.0026 36.812 5.04597 37.1195 5.15127C37.4269 5.25657 37.7105 5.42172 37.9538 5.63718L38.0897 5.75799C38.3456 5.96546 38.5576 6.22192 38.7132 6.51234C38.8688 6.80276 38.9649 7.1213 38.9958 7.44932C39.0197 7.77398 38.9786 8.10015 38.8749 8.40873C38.7712 8.7173 38.6069 9.00207 38.3917 9.24635L23.0037 26.809L17.9901 22.4297C17.6895 22.1657 17.2965 22.0317 16.8973 22.0572C16.4981 22.0827 16.1254 22.2655 15.8608 22.5656L11.8741 27.0959C11.8355 27.149 11.8002 27.2045 11.7684 27.262C10.69 27.3098 9.63232 27.5752 8.65913 28.0424C7.68593 28.5095 6.81729 29.1687 6.10547 29.9802C4.96622 31.5641 4.32482 33.4515 4.26313 35.4016C4.21274 35.9692 4.21274 36.5403 4.26313 37.108C4.32371 37.478 4.32371 37.8554 4.26313 38.2255C4.00322 39.2872 3.39102 40.2295 2.5265 40.8984C2.33588 41.062 2.18909 41.2706 2.09943 41.5053C2.00978 41.74 1.98009 41.9933 2.01306 42.2424C2.04776 42.4927 2.14475 42.7304 2.29513 42.9336C2.44552 43.1367 2.6445 43.2989 2.87382 43.4052C4.76413 44.2915 6.82652 44.7503 8.91429 44.7492C10.5375 44.7898 12.15 44.4757 13.6393 43.8289C15.1286 43.1821 16.4588 42.218 17.537 41.0041C18.9801 39.2449 19.8215 37.0698 19.9381 34.7975C20.0821 34.7151 20.2142 34.6135 20.3308 34.4955L24.3175 29.9651L40.6418 11.2397C41.6002 10.141 42.0842 8.70742 41.988 7.25268C41.8917 5.79794 41.2231 4.44058 40.1284 3.47771ZM15.1964 39.0409C14.0589 40.2434 12.6054 41.1008 11.0028 41.5148C9.40014 41.9288 7.71326 41.8827 6.13567 41.3816C6.68854 40.6071 7.07894 39.7287 7.28336 38.7993C7.38574 38.1489 7.38574 37.4865 7.28336 36.8362C7.25132 36.419 7.25132 36 7.28336 35.5828C7.31017 34.271 7.71956 32.9955 8.46125 31.9132C9.07958 31.3179 9.81966 30.8638 10.6305 30.5822C11.4413 30.3007 12.3035 30.1983 13.1577 30.2823L16.9179 33.5592C17.0212 35.5339 16.4101 37.4798 15.1964 39.0409ZM19.0019 31.3846L15.136 27.9416L17.1444 25.6462L21.0103 29.044L19.0019 31.3846Z" fill="#666666"/>
</g>
</g>
</svg>
