<svg width="45" height="45" viewBox="0 0 45 45" fill="none" xmlns="http://www.w3.org/2000/svg">
<g id="guidance:meeting-room" clip-path="url(#clip0_728_6035)">
<path id="Vector" d="M8.80435 24.5298H36.1957M22.5 24.5298V44.6362M11.7391 19.7426V11.1256H9.44609C8.14311 11.1256 6.87717 11.5499 5.84776 12.3317C4.81836 13.1136 4.08401 14.2084 3.76043 15.4437L0 29.7958V30.2745H13.6957V33.1469C13.6957 36.0192 13.6957 37.9341 15.163 40.8064C15.163 40.8064 16.6304 43.6788 18.587 43.6788M33.2609 19.7426V11.1256H35.5539C36.8569 11.1256 38.1228 11.5499 39.1522 12.3317C40.1816 13.1136 40.916 14.2084 41.2396 15.4437L45 29.7958V30.2745H31.3043V33.1469C31.3043 36.0192 31.3043 37.9341 29.837 40.8064C29.837 40.8064 28.3696 43.6788 26.413 43.6788M11.4457 7.2958C11.4457 7.2958 8.31522 5.38091 8.31522 2.98729C8.31522 2.09955 8.67554 1.24817 9.31691 0.620442C9.95829 -0.00728586 10.8282 -0.35994 11.7352 -0.35994C12.6423 -0.35994 13.5121 -0.00728586 14.1535 0.620442C14.7949 1.24817 15.1552 2.09955 15.1552 2.98729C15.1552 5.38091 12.0326 7.2958 12.0326 7.2958H11.4457ZM33.5543 7.2958C33.5543 7.2958 36.6848 5.38091 36.6848 2.98729C36.6848 2.09854 36.324 1.24618 35.6819 0.617734C35.0398 -0.0107121 34.1689 -0.36377 33.2609 -0.36377C31.3709 -0.36377 29.8448 1.13751 29.8448 2.98729C29.8448 5.38091 32.9674 7.2958 32.9674 7.2958H33.5543Z" stroke="#666666" stroke-width="1.04167"/>
</g>
<defs>
<clipPath id="clip0_728_6035">
<rect width="45" height="45" fill="white"/>
</clipPath>
</defs>
</svg>
