<svg width="19" height="19" viewBox="0 0 19 19" fill="none" xmlns="http://www.w3.org/2000/svg">
<g id="Frame">
<path id="Vector" d="M17.3223 5.16107C16.7607 5.41027 16.165 5.57384 15.5549 5.64632C16.1978 5.26084 16.6786 4.65485 16.9079 3.9412C16.304 4.30015 15.643 4.55305 14.9538 4.68895C14.6661 4.38139 14.3182 4.13629 13.9318 3.96888C13.5454 3.80147 13.1286 3.71534 12.7075 3.71582C11.008 3.71582 9.62989 5.09582 9.62989 6.79795C9.62989 7.03945 9.65727 7.27495 9.70977 7.50032C7.15227 7.3717 4.88427 6.1447 3.36664 4.27982C3.09292 4.75028 2.94913 5.28503 2.95002 5.82932C2.9494 6.3366 3.074 6.8362 3.31277 7.28377C3.55154 7.73135 3.89709 8.11307 4.31877 8.39507C3.83002 8.37975 3.35206 8.24756 2.92489 8.00957V8.0482C2.92461 8.75937 3.17019 9.44877 3.62002 9.99961C4.06984 10.5504 4.69626 10.9288 5.39314 11.0707C4.93997 11.1941 4.46457 11.212 4.00339 11.1232C4.39527 12.3479 5.53152 13.2389 6.87851 13.2637C5.78903 14.1207 4.44264 14.5857 3.05652 14.5837C2.80789 14.5837 2.56302 14.5687 2.32227 14.5402C3.72892 15.4458 5.36682 15.9266 7.03977 15.9251C12.7 15.9251 15.796 11.2286 15.796 7.15532C15.796 7.02182 15.7926 6.88907 15.7866 6.7567C16.3893 6.32035 16.9093 5.78002 17.3223 5.16107Z" fill="white"/>
</g>
</svg>
