<svg width="40" height="40" viewBox="0 0 40 40" fill="none" xmlns="http://www.w3.org/2000/svg">
<g id="raphael:roadmap">
<path id="Vector" d="M28.9855 4.66857C28.9857 4.08311 28.7533 3.52156 28.3394 3.10745C27.9256 2.69335 27.3641 2.46062 26.7787 2.46045C26.4888 2.46037 26.2017 2.51738 25.9338 2.62825C25.666 2.73911 25.4226 2.90164 25.2175 3.10657C24.8034 3.52044 24.5707 4.08186 24.5705 4.66732C24.5705 5.88607 26.778 10.0011 26.778 10.0011C26.778 10.0011 28.9855 5.88732 28.9855 4.66857ZM25.723 4.66857C25.7181 4.52706 25.7417 4.386 25.7924 4.25379C25.8431 4.12158 25.9199 4.00094 26.0182 3.89905C26.1166 3.79715 26.2344 3.7161 26.3647 3.66071C26.495 3.60532 26.6352 3.57673 26.7768 3.57665C26.9184 3.57656 27.0585 3.60498 27.1889 3.66022C27.3193 3.71545 27.4372 3.79637 27.5357 3.89815C27.6341 3.99992 27.7111 4.12048 27.762 4.25262C27.8128 4.38477 27.8366 4.5258 27.8318 4.66732C27.8225 4.94069 27.7075 5.19977 27.5109 5.38994C27.3143 5.5801 27.0515 5.68648 26.778 5.68665C26.5045 5.68681 26.2416 5.58074 26.0448 5.3908C25.848 5.20087 25.7326 4.94192 25.723 4.66857ZM31.6018 23.1186C30.9018 23.1186 30.2305 23.1773 29.6143 23.2723L13.8755 17.4698C14.1255 17.2448 14.2655 16.9948 14.2655 16.7323C14.2623 16.5939 14.2245 16.4586 14.1555 16.3386L24.668 13.5411C25.243 13.7123 25.9468 13.8161 26.7255 13.8161C28.6255 13.8161 30.163 13.2111 30.163 12.4636C30.163 11.7136 28.6255 11.1098 26.7255 11.1098C24.8255 11.1098 23.288 11.7161 23.288 12.4636C23.288 12.5511 23.313 12.6348 23.3555 12.7161L12.3705 15.2498C11.4495 14.99 10.4962 14.8625 9.5393 14.8711C6.93055 14.8711 4.8143 15.7048 4.8143 16.7336C4.8143 17.7623 6.93055 18.5961 9.5393 18.5961C10.2568 18.5961 10.9268 18.5273 11.5368 18.4148L26.5243 24.4973C26.2868 24.7373 26.1418 24.9973 26.1418 25.2761C26.1418 25.5136 26.2618 25.7311 26.4368 25.9423L10.8693 31.7686C10.6718 31.7623 10.4743 31.7561 10.273 31.7561C6.22305 31.7561 2.93555 33.0511 2.93555 34.6436C2.93555 36.2398 6.22305 37.5348 10.273 37.5348C14.323 37.5348 17.6105 36.2423 17.6105 34.6448C17.6105 34.3698 17.5068 34.1048 17.323 33.8536L30.1555 27.3361C30.618 27.3861 31.0968 27.4173 31.5993 27.4173C34.6155 27.4173 37.0618 26.4548 37.0618 25.2636C37.0618 24.0836 34.6155 23.1186 31.5993 23.1186H31.6018Z" fill="#666666"/>
</g>
</svg>
