<svg width="68" height="152" viewBox="0 0 68 152" fill="none" xmlns="http://www.w3.org/2000/svg">
<g id="64387e4e7de8fca4a5d64855_google-ads-logo.svg" opacity="0.6" clip-path="url(#clip0_39_44)">
<path id="Vector" d="M22.8477 50.175C23.1914 48.0511 23.7238 45.8981 24.5963 43.7492C28.0799 35.0733 34.6003 30.4769 37.738 34.4925C40.1006 37.5531 42.5736 40.3977 44.9914 43.3503C49.0255 48.2386 53.0992 53.0905 57.0957 58.0419C60.4547 62.1705 58.0473 73.4779 52.5101 79.7863C49.1169 83.6419 45.7196 84.4579 43.6098 81.9122C40.0672 77.6072 36.5046 73.3205 32.9641 69.0424C32.8921 68.9361 32.8024 68.8747 32.7127 68.8133C32.3684 68.7556 32.19 68.3735 31.9562 68.0996C30.3816 66.1546 28.7694 64.2727 27.1968 62.3542C26.1858 61.0986 25.137 59.9062 24.1259 58.6507C23.2108 57.5369 22.6992 55.8809 22.5755 53.755C22.5511 52.6288 22.5665 51.4662 22.8477 50.175Z" fill="#3C8BD9"/>
<path id="Vector_2" d="M22.8478 50.175C22.7448 51.3029 22.6618 52.4125 22.7017 53.467C22.8181 55.772 23.3975 57.4806 24.3826 58.6739C26.9578 61.7406 29.5352 64.8342 32.0929 67.9457C32.3266 68.2197 32.5207 68.53 32.7523 68.777C31.7813 72.6528 30.808 76.5018 29.8171 80.3957C28.4563 85.8058 27.0976 91.2425 25.7171 96.6707C25.6379 96.7433 25.6138 96.7079 25.5877 96.6456C25.5512 96.4495 25.596 96.2074 25.6188 95.9568C26.1171 91.1936 25.165 88.2474 22.8854 87.0631C21.4927 86.3582 19.8258 86.7658 17.9757 88.0878C15.5624 89.8109 13.527 92.566 11.8017 96.3003C11.4921 96.9572 11.3139 97.666 10.9386 98.297C10.8593 98.3696 10.8155 98.3525 10.7894 98.2902C11.5667 95.1949 12.3242 92.1179 13.1015 89.0226C16.3043 76.2112 19.5073 63.3995 22.7321 50.5966C22.7634 50.4532 22.8166 50.3183 22.8478 50.175Z" fill="#FABC04"/>
<path id="Vector_3" d="M10.8748 98.2981C11.2157 97.4977 11.5347 96.6886 11.8974 95.8968C16.3103 86.3407 23.8335 83.4381 25.5201 90.6209C25.9306 92.3407 25.9384 94.3433 25.6491 96.6182C25.6419 96.797 25.6325 96.9493 25.6055 97.1463C25.4606 97.7384 25.3378 98.339 25.1731 98.9494C23.7175 104.504 21.2747 108.838 17.8435 111.666C13.9108 114.868 10.5297 113.716 9.58435 108.955C9.12787 106.646 9.31798 103.916 10.1172 100.83C10.2776 100.166 10.4819 99.5194 10.6622 98.8375C10.7529 98.6396 10.6965 98.4615 10.8748 98.2981Z" fill="#34A852"/>
<path id="Vector_4" d="M10.8335 98.2816C10.8563 98.2907 10.8597 98.3363 10.8466 98.384C10.8294 98.4469 10.818 98.5098 10.8024 98.5711C10.7641 98.7223 10.6584 98.7247 10.6915 98.5742C10.7067 98.5057 10.7297 98.4344 10.7548 98.3598C10.7721 98.3084 10.8088 98.2719 10.8335 98.2816Z" fill="#FABC04"/>
<path id="Vector_5" d="M25.6949 96.8101C25.6547 96.9616 25.5428 97.0414 25.5704 96.8926C25.5802 96.8394 25.5961 96.7828 25.6142 96.7251C25.6321 96.668 25.674 96.628 25.7014 96.6388C25.7227 96.6471 25.7285 96.684 25.7166 96.7285L25.6949 96.8101Z" fill="#E1C025"/>
<path id="Vector_6" d="M14.7824 124.118C12.5434 126.169 10.8714 130.314 11.106 133.315C11.3405 136.316 13.3914 137.02 15.6305 134.969C16.8391 133.861 17.6889 132.509 18.3247 130.864C18.9804 129.201 19.0916 127.634 19.0057 126.536C18.9785 126.188 18.9335 125.884 18.873 125.653L15.1677 129.048L15.2829 130.521L17.9182 128.107C17.9038 129.01 17.7538 129.808 17.4703 130.527C17.1336 131.381 16.5654 132.533 15.5153 133.495C13.8905 134.984 12.4842 134.378 12.3146 132.208C12.145 130.037 13.2749 127.107 14.8997 125.618C15.7715 124.819 16.461 124.676 16.9649 124.874L17.6559 123.121C16.9351 122.863 16.0109 122.992 14.7824 124.118ZM21.8031 121.848C20.3963 123.137 19.3423 125.682 19.5036 127.745C19.6627 129.781 20.9292 130.229 22.3558 128.921C23.7825 127.614 24.8145 125.061 24.6553 123.024C24.4962 120.988 23.2098 120.559 21.8031 121.848ZM22.247 127.528C21.4743 128.236 20.7314 127.969 20.633 126.71C20.5346 125.451 21.1392 123.949 21.9119 123.241C22.6846 122.533 23.4254 122.773 23.5259 124.059C23.6243 125.319 23.0197 126.82 22.247 127.528ZM27.3907 116.728C25.964 118.035 24.9299 120.562 25.0912 122.625C25.2503 124.661 26.5168 125.109 27.9434 123.801C29.3502 122.512 30.4021 119.941 30.2429 117.904C30.0838 115.868 28.8173 115.421 27.3907 116.728ZM27.8346 122.408C27.0619 123.116 26.319 122.849 26.2206 121.59C26.1222 120.331 26.7268 118.829 27.4995 118.121C28.2722 117.413 29.013 117.653 29.1135 118.939C29.2119 120.199 28.6272 121.682 27.8346 122.408ZM32.9585 111.626C31.6705 112.807 30.6208 115.405 30.7758 117.388C30.9286 119.343 32.217 119.799 33.505 118.619C34.1191 118.057 34.5655 117.246 34.7895 116.581L34.8291 116.545L34.8689 117.054C34.9736 118.393 34.515 119.589 33.6629 120.369C32.9695 121.005 32.501 120.716 32.2788 120.317L31.3319 121.788C31.6826 122.471 32.5235 122.906 33.7718 121.763C35.0994 120.546 36.1252 118.458 35.9242 115.886L35.4342 109.616L34.3643 110.597L34.4083 111.159L34.3686 111.196C34.0776 111.003 33.5726 111.064 32.9585 111.626ZM33.4972 117.162C32.7245 117.87 32.0016 117.585 31.9052 116.353C31.8089 115.12 32.3916 113.61 33.1643 112.902C33.9371 112.194 34.6027 112.56 34.699 113.793C34.7953 115.025 34.27 116.454 33.4972 117.162ZM35.9775 105.156L37.1069 104.122L37.9151 114.463L36.7857 115.498L35.9775 105.156ZM40.4086 104.8C39.0613 106.034 38.0428 108.489 38.2082 110.606C38.3631 112.589 39.5941 113.126 41.0802 111.764C42.2889 110.657 42.9049 109.03 43.1384 108.213L42.1839 108.226C41.9327 109.088 41.546 109.844 40.9714 110.371C40.377 110.916 39.9337 110.948 39.6195 110.461L42.9738 105.292L42.8235 104.999C42.5448 104.422 41.7559 103.565 40.4086 104.8ZM39.3293 109.464C39.1828 108.134 39.9605 106.675 40.5351 106.148C40.9909 105.731 41.4102 105.662 41.5647 106.009L39.3293 109.464Z" fill="#757575"/>
<path id="Vector_7" d="M45.2734 107.549L47.154 95.748L48.1645 94.8221L51.5149 101.83L50.5241 102.738L49.6516 100.809L46.7389 103.478L46.2641 106.641L45.2734 107.549ZM46.9481 102.081L49.2665 99.9564L47.8062 96.7582L47.7665 96.7945L46.9481 102.081Z" fill="#757575"/>
<path id="Vector_8" d="M52.3657 100.218C51.8775 99.947 51.5967 99.343 51.5213 98.3784C51.448 97.4407 51.6032 96.4372 51.9846 95.3412C52.388 94.2538 52.8781 93.4602 53.5121 92.8792C53.8687 92.5525 54.1942 92.3692 54.4862 92.3026C54.8002 92.2445 55.0369 92.286 55.2227 92.489L55.2624 92.4526L55.1536 91.6049L54.9212 88.6309L55.8129 87.8139L56.5478 97.2181L55.6958 97.9988L55.6267 97.1146L55.587 97.1509C55.4536 97.6177 55.2567 98.0853 54.9761 98.5721C54.6957 99.0587 54.385 99.4295 54.0481 99.7382C53.4141 100.319 52.854 100.488 52.3657 100.218ZM55.1207 96.8892C55.3844 96.1881 55.4792 95.4983 55.4248 94.8017C55.3724 94.132 55.1897 93.6964 54.859 93.5401C54.5481 93.3655 54.1747 93.4781 53.7387 93.8776C53.3029 94.2769 52.963 94.8179 52.7191 95.5009C52.4554 96.2018 52.3606 96.8917 52.4129 97.5615C52.4653 98.2313 52.648 98.6668 52.9787 98.8232C53.3094 98.9795 53.6828 98.8671 54.0989 98.4859C54.5369 98.1131 54.8768 97.572 55.1207 96.8892Z" fill="#757575"/>
<path id="Vector_9" d="M60.6398 93.0665C60.3125 93.7684 59.8735 94.4004 59.3187 94.9088C58.8432 95.3445 58.4145 95.565 58.0108 95.5616C57.6269 95.5402 57.3358 95.3475 57.1334 94.93L57.8903 93.7484C58.0386 94.0145 58.2221 94.1908 58.4766 94.1873C58.7113 94.2018 58.9774 94.073 59.2349 93.837C59.5123 93.5828 59.7438 93.2846 59.9294 92.9422C60.115 92.6 60.1774 92.313 60.1607 92.0986C60.1293 91.6968 59.8664 91.5931 59.396 91.8231L58.5627 92.2996C57.6063 92.8314 57.1045 92.6595 57.0333 91.7487C56.9873 91.1592 57.13 90.5403 57.4573 89.8384C57.7868 89.1632 58.2279 88.5582 58.7629 88.068C59.1789 87.6867 59.5659 87.4756 59.9435 87.4168C60.3013 87.376 60.5684 87.5333 60.7426 87.8617L59.9856 89.0435C59.8657 88.8662 59.7102 88.779 59.4995 88.7997C59.2887 88.8206 59.0447 88.9581 58.7872 89.194C58.5494 89.4119 58.3575 89.6739 58.172 90.0161C58.0062 90.3403 57.9218 90.6187 57.9406 90.8598C57.9699 91.235 58.2484 91.2669 58.774 90.9288L59.5063 90.5163C60.4824 89.9663 60.9884 90.1917 61.0638 91.1564C61.1276 91.7007 60.9671 92.3646 60.6398 93.0665Z" fill="#757575"/>
</g>
<defs>
<clipPath id="clip0_39_44">
<rect width="80.7723" height="97.42" fill="white" transform="matrix(0.73729 -0.675577 0.077913 0.99696 0 54.5679)"/>
</clipPath>
</defs>
</svg>
