<svg width="84" height="70" viewBox="0 0 84 70" fill="none" xmlns="http://www.w3.org/2000/svg">
<path id="Vector" opacity="0.75" d="M31.6561 38.3461L19.3326 24.9756L8.37441 30.0439C8.18615 30.149 7.96714 30.1851 7.75514 30.1459C7.54314 30.1068 7.35144 29.9949 7.2131 29.8295L0.971239 23.0574C0.615546 22.6714 0.703311 22.3406 1.23485 22.0651L45.2442 2.91276C45.6979 2.7084 46.2001 2.45996 46.7506 2.16644C47.6629 1.6061 48.5189 0.960427 49.3081 0.237421C49.3559 0.178805 49.4167 0.132116 49.4856 0.101053C49.5546 0.0699895 49.6298 0.0554067 49.7054 0.0584547C49.781 0.0615027 49.8548 0.0820993 49.921 0.118616C49.9872 0.155131 50.0441 0.206562 50.087 0.268838L58.5695 9.47211C58.8181 9.74174 58.8636 9.98526 58.7065 10.2024L33.7729 57.484C33.4935 57.956 33.1935 58.018 32.8739 57.6706L25.9384 50.1458C25.8049 50.0298 25.7183 49.8691 25.6947 49.6939C25.6711 49.5187 25.7121 49.3408 25.8101 49.1937L31.6561 38.3461ZM28.546 20.3374L36.9751 29.4827L37.2853 28.9556L37.7739 28.1182L38.1149 27.5277L38.6489 26.5948L39.7684 24.626L40.7642 22.8841L43.3614 18.3503C44.0067 17.2229 44.6663 16.1038 45.34 14.9931L45.8898 14.0949L46.5425 13.0358L47.5596 11.4002L47.7515 11.0924L47.6984 11.0348C46.0421 12.0257 44.3416 12.9407 42.6022 13.777L39.0483 15.4643L37.0866 16.3984L35.102 17.3455C34.7434 17.5164 34.3885 17.6853 34.0366 17.8506L32.9923 18.3394L31.9681 18.8121L30.9647 19.2682L29.9817 19.7079C29.6576 19.852 29.3369 19.993 29.0195 20.1316L28.546 20.3374ZM72.1723 36.5425C71.6045 35.974 71.1631 35.292 70.8769 34.5412C70.5907 33.7904 70.4663 32.9877 70.5116 32.1855C70.5764 31.3674 70.8022 30.5702 71.1761 29.8397C71.5501 29.1092 72.0647 28.4598 72.6904 27.9288C73.2679 27.3577 73.9594 26.9148 74.7197 26.6291C75.48 26.3434 76.292 26.2213 77.1028 26.2707C78.6661 26.3664 80.1322 27.0615 81.1959 28.2112L81.3082 28.3358C82.5887 29.7251 83.1791 31.1975 83.0784 32.7534C83.0153 33.55 82.7956 34.3264 82.432 35.038C82.0684 35.7496 81.5681 36.3826 80.9596 36.9006C80.3766 37.4827 79.6826 37.9418 78.9187 38.2505C78.1549 38.5592 77.3368 38.7112 76.513 38.6974C75.7082 38.6588 74.9192 38.4596 74.1926 38.1114C73.466 37.7633 72.8163 37.2732 72.282 36.6702L72.1723 36.5425ZM37.2932 61.3034L64.9603 35.8029C65.3074 35.4829 65.623 35.4763 65.9082 35.7857L72.4703 42.9054C72.7546 43.2138 72.7233 43.5281 72.3761 43.8487L44.709 69.3493C44.3227 69.7053 43.9873 69.7289 43.7031 69.4199L37.1944 62.3582C36.8912 62.0292 36.9048 61.6963 37.2354 61.3598L37.2932 61.3034Z" fill="#FF9A00"/>
</svg>
