<svg width="75" height="60" viewBox="0 0 75 60" fill="none" xmlns="http://www.w3.org/2000/svg">
<g id="logos:google-cloud" opacity="0.6" clip-path="url(#clip0_39_31)">
<path id="Vector" d="M49.5914 16.5492L56.0729 10.0678L56.5048 7.33863C44.6938 -3.40108 25.9188 -2.18331 15.2714 9.8796C12.3142 13.23 10.1201 17.407 8.95013 21.7203L11.2715 21.3932L24.2341 19.2553L25.2349 18.2321C31.001 11.8995 40.7504 11.0476 47.4081 16.4356L49.5914 16.5492Z" fill="#EA4335"/>
<path id="Vector_2" d="M65.3059 21.5295C63.8162 16.0433 60.7574 11.1113 56.5048 7.33862L47.4081 16.4353C49.3039 17.9844 50.8233 19.9438 51.8515 22.1656C52.8797 24.3875 53.3899 26.8138 53.3437 29.2616V30.8764C57.8146 30.8764 61.4399 34.5011 61.4399 38.9723C61.4399 43.4438 57.8149 46.9777 53.3437 46.9777H37.1289L35.5368 48.706V58.4167L37.1289 59.9403H53.3434C64.9735 60.0309 74.4754 50.7673 74.566 39.1372C74.593 35.6664 73.7617 32.2428 72.1462 29.1709C70.5306 26.099 68.1808 23.474 65.3059 21.5295Z" fill="#4285F4"/>
<path id="Vector_3" d="M20.9364 59.9406H37.1286V46.9777H20.9364C19.7902 46.9775 18.6576 46.7293 17.6163 46.2501L15.3192 46.955L8.79227 53.4364L8.22372 55.6425C11.884 58.4062 16.3499 59.9604 20.9364 59.9406Z" fill="#34A853"/>
<path id="Vector_4" d="M20.9365 17.8908C9.30636 17.9604 -0.0655814 27.445 0.00373902 39.0754C0.0228595 42.2803 0.773251 45.4386 2.19774 48.3096C3.62223 51.1806 5.68324 53.6885 8.22374 55.6424L17.6164 46.2504C13.5416 44.409 11.7305 39.6137 13.5716 35.5389C15.4124 31.4642 20.2083 29.6531 24.2828 31.4939C26.0783 32.3051 27.5164 33.7433 28.3275 35.5389L37.7201 26.1463C35.7488 23.569 33.2079 21.4827 30.2963 20.0505C27.3847 18.6184 24.1812 17.8792 20.9365 17.8908Z" fill="#FBBC05"/>
</g>
<defs>
<clipPath id="clip0_39_31">
<rect width="74.57" height="60" fill="white"/>
</clipPath>
</defs>
</svg>
