<svg width="45" height="75" viewBox="0 0 45 75" fill="none" xmlns="http://www.w3.org/2000/svg">
<g id="logos:figma" clip-path="url(#clip0_39_56)">
<path id="Vector" d="M21.3695 69.9256C25.6027 70.6976 28.0657 66.2515 26.8674 60.0014L24.6965 48.6786L17.0277 47.2802C12.7945 46.5082 10.3315 50.9543 11.5298 57.2044C12.7281 63.4546 17.1363 69.1537 21.3695 69.9256Z" fill="#0ACF83"/>
<path id="Vector_2" d="M7.18799 34.5589C5.98965 28.3088 8.45271 23.8627 12.6859 24.6347L20.3547 26.0331L24.6965 48.6786L17.0277 47.2801C12.7945 46.5082 8.38633 40.8091 7.18799 34.5589Z" fill="#A259FF"/>
<path id="Vector_3" d="M2.8462 11.9135C1.64786 5.66334 4.11091 1.21727 8.34409 1.98922L16.0129 3.38768L20.3547 26.0331L12.6859 24.6347C8.45272 23.8627 4.04453 18.1636 2.8462 11.9135Z" fill="#F24E1E"/>
<path id="Vector_4" d="M16.0129 3.3877L23.6817 4.78616C27.9148 5.55811 32.323 11.2572 33.5214 17.5073C34.7197 23.7575 32.2567 28.2036 28.0235 27.4316L20.3547 26.0332L16.0129 3.3877Z" fill="#FF7262"/>
<path id="Vector_5" d="M37.8632 40.1528C39.0615 46.4029 36.5984 50.849 32.3653 50.0771C28.1321 49.3051 23.7239 43.606 22.5256 37.3559C21.3272 31.1057 23.7903 26.6597 28.0235 27.4316C32.2566 28.2036 36.6648 33.9026 37.8632 40.1528Z" fill="#1ABCFE"/>
</g>
<defs>
<clipPath id="clip0_39_56">
<rect width="35.1219" height="52.6828" fill="white" transform="matrix(0.873392 0.159269 0.247242 1.28954 0.675293 0.590759)"/>
</clipPath>
</defs>
</svg>
