<svg width="139" height="134" viewBox="0 0 139 134" fill="none" xmlns="http://www.w3.org/2000/svg">
<g id="Group 50" opacity="0.6">
<g id="Vector" filter="url(#filter0_d_39_62)">
<path d="M71.8408 30.04L35.5675 73.835C35.1875 74.2938 34.7916 74.352 34.3789 74.0102L26.0598 67.1198C25.6926 66.8158 25.6993 66.4345 26.0798 65.9768L62.3531 22.1818C62.6565 21.8155 63.0145 21.8029 63.4272 22.144L71.7463 29.0343C71.8245 29.0824 71.8913 29.1469 71.942 29.2233C71.9927 29.2998 72.0261 29.3863 72.04 29.477C72.0538 29.5677 72.0478 29.6603 72.0222 29.7484C71.9967 29.8365 71.9522 29.918 71.892 29.9872L71.8408 30.04ZM59.4879 95.9583L59.0415 95.596C55.8372 93.0232 53.2464 89.7688 51.4575 86.0692C49.8039 82.6071 49.2403 78.7246 49.8412 74.9352C50.4122 71.1498 52.2411 67.3566 55.3268 63.556L55.5611 63.2708C58.1489 60.094 61.5282 57.6554 65.3587 56.2008C69.173 54.7731 73.3057 54.418 77.3076 55.1743L77.6318 55.2376C81.9768 56.0548 86.2584 58.2099 90.4756 61.7029L90.5642 61.7769L90.7579 61.9447L90.974 62.1386L91.2128 62.358L91.4736 62.603L91.756 62.874L92.3893 63.4924L92.5618 63.6622L103.779 50.1187C104.045 49.7984 104.316 49.7511 104.591 49.9786L113.254 57.1537C113.316 57.1921 113.369 57.2445 113.408 57.3069C113.447 57.3693 113.471 57.4398 113.478 57.513C113.484 57.5861 113.474 57.6599 113.448 57.7284C113.421 57.7969 113.379 57.8583 113.324 57.9076L79.6702 98.5403C78.9699 99.3916 78.3016 100.269 77.6666 101.17L76.9973 102.11L76.3712 102.982L75.7885 103.787C75.6787 103.937 75.5262 104.05 75.351 104.112C75.1758 104.173 74.986 104.181 74.8065 104.133C71.7997 103.214 68.8994 101.977 66.1545 100.444C63.812 99.1361 61.5822 97.6359 59.4883 95.9587L59.4879 95.9583ZM70.2966 90.5444L85.8422 71.7752C85.554 71.3668 85.2317 70.9836 84.8788 70.6296C84.4495 70.1945 83.998 69.7819 83.5263 69.3932C81.8712 67.9948 79.9106 67.006 77.8025 66.5074C75.7462 66.025 73.5999 66.0847 71.5735 66.6805C69.4949 67.2767 67.5251 68.6982 65.6653 70.9445C64.3907 72.4154 63.3998 74.1099 62.743 75.9421C62.2178 77.422 62.0198 78.9982 62.1625 80.562C62.3257 82.0271 62.8269 83.4342 63.6267 84.6724C64.4635 85.9898 65.5048 87.1656 66.7114 88.1554C67.3527 88.6866 67.9677 89.1568 68.5563 89.5667C69.0226 89.8973 69.5177 90.1854 70.0356 90.4275L70.2966 90.5444Z" fill="#FF3366"/>
</g>
</g>
<defs>
<filter id="filter0_d_39_62" x="0.789307" y="0.897217" width="137.69" height="132.267" filterUnits="userSpaceOnUse" color-interpolation-filters="sRGB">
<feFlood flood-opacity="0" result="BackgroundImageFix"/>
<feColorMatrix in="SourceAlpha" type="matrix" values="0 0 0 0 0 0 0 0 0 0 0 0 0 0 0 0 0 0 127 0" result="hardAlpha"/>
<feOffset dy="4"/>
<feGaussianBlur stdDeviation="12.5"/>
<feComposite in2="hardAlpha" operator="out"/>
<feColorMatrix type="matrix" values="0 0 0 0 0 0 0 0 0 0 0 0 0 0 0 0 0 0 0.3 0"/>
<feBlend mode="normal" in2="BackgroundImageFix" result="effect1_dropShadow_39_62"/>
<feBlend mode="normal" in="SourceGraphic" in2="effect1_dropShadow_39_62" result="shape"/>
</filter>
</defs>
</svg>
