<svg width="64" height="58" viewBox="0 0 64 58" fill="none" xmlns="http://www.w3.org/2000/svg">
<g id="logos:google-marketing-platform" opacity="0.5" clip-path="url(#clip0_39_38)">
<path id="Vector" d="M20.7 24.7682C18.225 30.3921 21.2828 36.7515 27.5328 38.9786C30.6578 40.0921 32.1904 43.2796 30.9454 46.0759C29.7079 48.8879 26.1655 50.2671 23.0405 49.1535C10.5405 44.6993 4.425 31.9806 9.37498 20.7327L20.7 24.7682Z" fill="#EA4335"/>
<path id="Vector_2" d="M9.39244 20.7259C14.3424 9.47795 28.4595 3.98179 40.9595 8.43596C53.4595 12.8901 59.575 25.6088 54.625 36.8568L43.3075 32.837C45.7825 27.213 42.7248 20.8537 36.4748 18.6266C30.2248 16.3995 23.1575 19.151 20.6825 24.775C19.445 27.587 15.9027 28.9661 12.7777 27.8526C9.68759 26.7254 8.15494 23.5379 9.39244 20.7259Z" fill="url(#paint0_linear_39_38)"/>
<path id="Vector_3" d="M23.058 49.1467L27.5502 38.9718C33.8002 41.1989 40.8674 38.4474 43.3424 32.8234L54.6599 36.8432C49.675 48.1047 35.558 53.6009 23.058 49.1467Z" fill="#FBBC04"/>
<path id="Vector_4" d="M27.5328 38.9786C24.4078 37.8651 20.8829 39.2374 19.6454 42.0494C18.4079 44.8614 19.9405 48.0489 23.0655 49.1625C26.1905 50.276 29.7154 48.9037 30.9529 46.0917C32.1904 43.2797 30.6578 40.0922 27.5328 38.9786Z" fill="#EA4335"/>
<path id="Vector_5" d="M51.2124 29.7594C48.0874 28.6458 44.5625 30.0182 43.325 32.8302C42.0875 35.6422 43.6201 38.8297 46.7451 39.9432C49.8701 41.0568 53.395 39.6844 54.6325 36.8724C55.87 34.0605 54.3374 30.8729 51.2124 29.7594Z" fill="#34A853"/>
</g>
<defs>
<linearGradient id="paint0_linear_39_38" x1="869.512" y1="1715.46" x2="-2963.51" y2="3558.48" gradientUnits="userSpaceOnUse">
<stop stop-color="#246FDB"/>
<stop offset="0.0552" stop-color="#2973DF"/>
<stop offset="0.2781" stop-color="#377DEB"/>
<stop offset="0.5491" stop-color="#3F83F2"/>
<stop offset="1" stop-color="#4285F4"/>
</linearGradient>
<clipPath id="clip0_39_38">
<rect width="47.9382" height="44.6028" fill="white" transform="matrix(-0.931866 0.362802 0.433338 0.901232 44.6719 0)"/>
</clipPath>
</defs>
</svg>
