<svg width="77" height="62" viewBox="0 0 77 62" fill="none" xmlns="http://www.w3.org/2000/svg">
<path id="Vector" opacity="0.6" d="M23.5475 61.2449L0.362755 21.0878C0.193737 20.795 0.234687 20.5753 0.486085 20.4301L0.883225 20.1994L1.55891 19.7995L2.49298 19.2353L5.61966 17.3408L8.97738 15.3183C10.1592 14.6087 11.3363 13.9144 12.5095 13.2371C15.6932 11.399 18.6043 10.2492 21.2429 9.78693C23.5925 9.31694 26.0173 9.3768 28.3408 9.96214C30.3264 10.486 32.1748 11.4344 33.7583 12.742C35.2824 14.0241 36.5689 15.5645 37.559 17.2926C39.4945 20.6449 40.3155 23.8576 40.0229 26.9306C39.7335 29.9309 38.557 32.7769 36.6433 35.1057L36.478 35.3036C34.4758 37.7286 31.8487 39.704 28.762 41.5149L28.2813 41.7944L27.5645 42.2033L27.2011 42.4063L26.7938 42.6288L26.5461 42.7591L26.3945 42.8364L26.025 43.0322L25.5773 43.2784L24.9086 43.6582L24.7602 43.7434L31.999 56.2815C32.0544 56.352 32.0926 56.4344 32.1106 56.5222C32.1286 56.61 32.1259 56.7009 32.1027 56.7875C32.0795 56.8741 32.0364 56.9541 31.9769 57.0211C31.9174 57.0882 31.8431 57.1405 31.7599 57.1738L24.278 61.4935C23.9841 61.6632 23.7414 61.5808 23.5475 61.2449ZM12.951 23.2884L20.5129 36.386C21.0378 36.1369 21.5528 35.8676 22.0569 35.5785L24.131 34.381C25.5582 33.5506 26.857 32.5169 27.9865 31.3124L28.2102 31.0696C29.2418 29.9808 29.9388 28.6185 30.218 27.1449C30.4693 25.7615 30.1385 24.2462 29.225 22.599L29.1214 22.4153C28.4525 21.1807 27.4437 20.1637 26.2144 19.4854C24.9727 18.8597 23.5685 18.6318 22.1927 18.8325C20.404 19.1081 18.6894 19.7419 17.1516 20.6959L16.3558 21.1582L15.8555 21.4529L15.3794 21.7361L14.71 22.1401L14.224 22.4393L13.973 22.5969L13.6394 22.811L13.3578 22.9975L13.1989 23.1068L13.0631 23.2037L13.004 23.2476L12.951 23.2884ZM64.4884 7.82141C63.0669 7.891 61.6597 8.13917 60.3002 8.56008L59.9874 8.66064C58.4899 9.12064 57.0435 9.73288 55.6708 10.4878L55.3297 10.6794C54.5221 11.1169 53.7831 11.6707 53.1363 12.3229C52.7105 12.7136 52.4368 13.2426 52.3638 13.8159C52.3431 14.2529 52.4482 14.6867 52.6668 15.0657C52.8904 15.4266 53.2269 15.7034 53.6241 15.8533C54.1828 16.0509 54.7725 16.1462 55.365 16.1349L55.5428 16.1283C56.7173 16.0935 57.8888 15.9905 59.0515 15.8201C61.5682 15.3084 64.1378 15.1051 66.7037 15.2146C68.4485 15.2833 70.149 15.7846 71.6521 16.6732C72.9965 17.56 74.1058 18.7594 74.8852 20.1688C75.9861 21.9888 76.5043 24.1018 76.3703 26.2246C76.1777 28.4119 75.3605 30.4977 74.016 32.2337C72.6405 34.1081 70.6183 35.8333 67.9504 37.4102L67.6724 37.5727C66.0184 38.5501 64.2729 39.3637 62.4608 40.002L62.0716 40.1359C60.5488 40.6784 58.9647 41.03 57.3554 41.1828C57.1893 41.1906 57.0241 41.1542 56.8767 41.0774C56.7292 41.0005 56.6049 40.8858 56.5162 40.7452L52.5616 33.8956C52.5157 33.8334 52.4875 33.76 52.48 33.6831C52.4726 33.6062 52.4862 33.5287 52.5193 33.4589C52.5556 33.3973 52.6099 33.3482 52.6749 33.3182C52.7398 33.2882 52.8124 33.2787 52.8829 33.291C54.8982 33.3095 56.9041 33.0136 58.8283 32.4141C60.5465 31.9238 62.2018 31.2353 63.7609 30.3625C65.2268 29.5162 66.1966 28.7045 66.6706 27.9283C66.9003 27.605 67.0315 27.2221 67.0481 26.8258C67.0648 26.4296 66.9662 26.037 66.7643 25.6956C66.4503 25.1519 65.8335 24.8093 64.9147 24.6689C64.5295 24.6103 64.019 24.5991 63.3842 24.6353L63.0821 24.6555L62.7628 24.6822L62.5964 24.6983L62.25 24.7353C62.19 24.7421 62.1301 24.749 62.0702 24.7562L61.6975 24.8035L61.5043 24.8297L61.105 24.887L60.8987 24.9183L60.4724 24.9853L60.0288 25.0595C57.6589 25.512 55.2387 25.6409 52.8342 25.4427C51.1126 25.2975 49.4488 24.7516 47.9759 23.8486C46.6429 22.9671 45.5404 21.7791 44.7607 20.3841C43.7972 18.7234 43.3121 16.8284 43.3591 14.909C43.445 12.776 44.145 10.7129 45.3761 8.96878C46.6876 6.98354 48.7253 5.19228 51.4902 3.59496C53.1024 2.64684 54.7873 1.82825 56.529 1.14689C57.7735 0.62448 59.0842 0.276584 60.4239 0.113081C60.6257 0.0629172 60.8389 0.110133 61.0005 0.24128C61.1318 0.369888 61.2442 0.516298 61.3355 0.676268L65.0001 7.02343C65.0958 7.16818 65.1068 7.35362 65.0292 7.50915C64.9693 7.59944 64.8893 7.67462 64.7955 7.7288C64.7016 7.78297 64.5965 7.81467 64.4884 7.82141Z" fill="#31A8FF"/>
</svg>
