<svg width="45" height="45" viewBox="0 0 45 45" fill="none" xmlns="http://www.w3.org/2000/svg">
<g id="carbon:load-balancer-local">
<g id="Group">
<path id="Vector" d="M2 23C2 34.0275 10.9725 43 22 43C33.0275 43 42 34.0275 42 23C42 11.9725 33.0275 3 22 3C10.9725 3 2 11.9725 2 23ZM22 4.25C32.3387 4.25 40.75 12.6613 40.75 23C40.75 33.3387 32.3387 41.75 22 41.75C11.6613 41.75 3.25 33.3387 3.25 23C3.25 12.6613 11.6613 4.25 22 4.25Z" fill="#666666"/>
<path id="Vector_2" d="M22 39.25C30.96 39.25 38.25 31.96 38.25 23C38.25 14.04 30.96 6.75 22 6.75C13.04 6.75 5.75 14.04 5.75 23C5.75 31.96 13.04 39.25 22 39.25ZM20.75 8.06375V9.97125C20.75 10.137 20.8158 10.296 20.9331 10.4132C21.0503 10.5304 21.2092 10.5963 21.375 10.5963C21.5408 10.5963 21.6997 10.5304 21.8169 10.4132C21.9342 10.296 22 10.137 22 9.97125V8C29.8487 8 36.2975 14.0625 36.9362 21.75H35.0275C34.8617 21.75 34.7028 21.8158 34.5856 21.9331C34.4683 22.0503 34.4025 22.2092 34.4025 22.375C34.4025 22.5408 34.4683 22.6997 34.5856 22.8169C34.7028 22.9342 34.8617 23 35.0275 23H37C37 31.2712 30.2712 38 22 38V36.0288C22 35.863 21.9342 35.704 21.8169 35.5868C21.6997 35.4696 21.5408 35.4038 21.375 35.4038C21.2092 35.4038 21.0503 35.4696 20.9331 35.5868C20.8158 35.704 20.75 35.863 20.75 36.0288V37.9362C13.0637 37.2975 7 30.85 7 23H8.9725C9.13826 23 9.29723 22.9342 9.41444 22.8169C9.53165 22.6997 9.5975 22.5408 9.5975 22.375C9.5975 22.2092 9.53165 22.0503 9.41444 21.9331C9.29723 21.8158 9.13826 21.75 8.9725 21.75H7.06375C7.6675 14.4763 13.4763 8.6675 20.75 8.06375Z" fill="#666666"/>
<path id="Vector_3" d="M13.7353 31.8011C13.8663 31.8011 13.994 31.76 14.1003 31.6836L21.1178 26.6386C21.4028 26.7086 21.6966 26.7548 22.0028 26.7548C24.0703 26.7548 25.7528 25.0723 25.7528 23.0048C25.7498 22.7153 25.7133 22.4271 25.6441 22.1461L30.7765 15.0061C30.8622 14.8855 30.9024 14.7385 30.8901 14.5911C30.8778 14.4437 30.8137 14.3055 30.7092 14.2008C30.6047 14.0962 30.4665 14.0319 30.3191 14.0193C30.1718 14.0068 30.0247 14.0468 29.904 14.1323L22.6816 19.3236C22.4575 19.2797 22.2299 19.2567 22.0015 19.2548C19.9341 19.2548 18.2516 20.9373 18.2516 23.0048C18.2516 23.2486 18.2791 23.4873 18.3241 23.7186L13.2278 30.8111C13.1611 30.9045 13.1214 31.0146 13.113 31.1291C13.1046 31.2437 13.1279 31.3583 13.1803 31.4605C13.2327 31.5627 13.3122 31.6485 13.41 31.7086C13.5079 31.7686 13.6205 31.8006 13.7353 31.8011ZM19.5028 23.0061C19.5028 21.6273 20.6241 20.5061 22.0028 20.5061C23.3816 20.5061 24.5028 21.6273 24.5028 23.0061C24.5028 24.3848 23.3816 25.5061 22.0028 25.5061C20.6241 25.5061 19.5028 24.3836 19.5028 23.0061ZM27.5328 17.3786L25.0491 20.8348C24.7806 20.4573 24.445 20.1323 24.0591 19.8761L27.5328 17.3786ZM18.8841 25.0836C19.1328 25.4561 19.4516 25.7748 19.8128 26.0373L16.4728 28.4386L18.8841 25.0836Z" fill="#666666"/>
</g>
</g>
</svg>
