<svg width="23" height="22" viewBox="0 0 23 22" fill="none" xmlns="http://www.w3.org/2000/svg">
<g id="Frame">
<path id="Vector" d="M2.98134 8.09509H6.72593V19.3638H2.98134V8.09509ZM4.8787 2.66309C3.59708 2.66309 2.75977 3.50448 2.75977 4.60884C2.75977 5.69048 3.57257 6.55633 4.82969 6.55633H4.85357C6.1597 6.55633 6.97309 5.69043 6.97309 4.60884C6.94858 3.50448 6.15974 2.66309 4.8787 2.66309ZM15.92 7.83037C13.9323 7.83037 13.0418 8.92366 12.545 9.69038V8.09509H8.79931C8.8489 9.15222 8.79931 19.3638 8.79931 19.3638H12.545V13.0705C12.545 12.7335 12.5695 12.3977 12.6681 12.1562C12.9393 11.4834 13.5556 10.7866 14.5894 10.7866C15.9457 10.7866 16.4873 11.8204 16.4873 13.3346V19.3638H20.2324V12.9021C20.2324 9.44085 18.3852 7.83037 15.92 7.83037Z" fill="white"/>
</g>
</svg>
