<svg width="19" height="19" viewBox="0 0 19 19" fill="none" xmlns="http://www.w3.org/2000/svg">
<g id="Frame">
<path id="Vector" d="M17.4395 4.70013C16.8779 4.94933 16.2821 5.1129 15.6721 5.18538C16.3149 4.79991 16.7958 4.19391 17.0251 3.48026C16.4212 3.83921 15.7602 4.09211 15.071 4.22801C14.7833 3.92045 14.4354 3.67535 14.049 3.50794C13.6626 3.34054 13.2458 3.2544 12.8247 3.25488C11.1252 3.25488 9.74708 4.63488 9.74708 6.33701C9.74708 6.57851 9.77445 6.81401 9.82695 7.03938C7.26945 6.91076 5.00145 5.68376 3.48383 3.81888C3.2101 4.28934 3.06632 4.82409 3.0672 5.36838C3.06659 5.87567 3.19119 6.37526 3.42996 6.82283C3.66873 7.27041 4.01428 7.65213 4.43595 7.93413C3.94721 7.91881 3.46924 7.78662 3.04208 7.54863V7.58726C3.0418 8.29843 3.28738 8.98783 3.7372 9.53867C4.18703 10.0895 4.81345 10.4679 5.51033 10.6098C5.05716 10.7331 4.58176 10.7511 4.12058 10.6623C4.51245 11.887 5.6487 12.778 6.9957 12.8028C5.90622 13.6597 4.55983 14.1247 3.1737 14.1228C2.92508 14.1228 2.6802 14.1078 2.43945 14.0793C3.8461 14.9848 5.48401 15.4657 7.15695 15.4641C12.8172 15.4641 15.9132 10.7676 15.9132 6.69438C15.9132 6.56088 15.9098 6.42813 15.9038 6.29576C16.5065 5.85942 17.0265 5.31908 17.4395 4.70013Z" fill="#272727" fill-opacity="0.7"/>
</g>
</svg>
